HIERARCHY
ROOT CG
{
	OFFSET 0.000000 -0.000000 27.772259
	CHANNELS 6 Xposition Yposition Zposition Xrotation Yrotation Zrotation
	JOINT Pelvis
	{
		OFFSET 0.000000 0.000000 0.000000
		CHANNELS 3 Xrotation Yrotation Zrotation
		JOINT Spine
		{
			OFFSET -0.000017 -10.490843 -0.495483
			CHANNELS 3 Xrotation Yrotation Zrotation
			JOINT Spine1
			{
				OFFSET -0.000010 -22.678980 0.018061
				CHANNELS 3 Xrotation Yrotation Zrotation
				JOINT Spine2
				{
					OFFSET -0.000010 -22.678967 0.018061
					CHANNELS 3 Xrotation Yrotation Zrotation
					JOINT Spine3
					{
						OFFSET -0.000010 -22.678982 0.018059
						CHANNELS 3 Xrotation Yrotation Zrotation
						JOINT Neck
						{
							OFFSET -0.000012 -22.678986 -1.289251
							CHANNELS 3 Xrotation Yrotation Zrotation
							JOINT Neck1
							{
								OFFSET -0.000007 -16.255905 0.012947
								CHANNELS 3 Xrotation Yrotation Zrotation
								JOINT Head
								{
									OFFSET -0.000005 -10.784607 -0.287502
									CHANNELS 3 Xrotation Yrotation Zrotation
									JOINT Jaw01
									{
										OFFSET 0.000031 7.782959 5.073944
										CHANNELS 3 Xrotation Yrotation Zrotation
										JOINT Jaw02
										{
											OFFSET 0.000004 -34.927139 -18.883980
											CHANNELS 3 Xrotation Yrotation Zrotation
											End Site
											{
												OFFSET -0.000170 8.372803 -38.812450
											}
										}
									}
									JOINT Nose
									{
										OFFSET -0.000002 -25.700912 7.222265
										CHANNELS 3 Xrotation Yrotation Zrotation
										End Site
										{
											OFFSET -0.000090 0.641281 -21.715439
										}
									}
									JOINT L_EyeSocket
									{
										OFFSET 7.352326 -19.832718 14.164183
										CHANNELS 3 Xrotation Yrotation Zrotation
										JOINT L_Eye
										{
											OFFSET -0.000868 -0.001053 0.016003
											CHANNELS 3 Xrotation Yrotation Zrotation
											End Site
											{
												OFFSET -0.001505 -0.001846 0.027969
											}
										}
										JOINT L_Eyelid_Top
										{
											OFFSET -0.001004 -0.002625 0.032516
											CHANNELS 3 Xrotation Yrotation Zrotation
											End Site
											{
												OFFSET -0.013218 0.005753 0.024086
											}
										}
										JOINT L_Eyelid_Bottom
										{
											OFFSET -0.001194 -0.002777 0.035381
											CHANNELS 3 Xrotation Yrotation Zrotation
											End Site
											{
												OFFSET -0.010032 0.008636 -0.024754
											}
										}
									}
									JOINT R_EyeSocket
									{
										OFFSET -7.352252 -19.832748 14.164206
										CHANNELS 3 Xrotation Yrotation Zrotation
										JOINT R_Eye
										{
											OFFSET 0.000875 -0.001068 0.015991
											CHANNELS 3 Xrotation Yrotation Zrotation
											End Site
											{
												OFFSET 0.001505 -0.001846 0.027962
											}
										}
										JOINT R_Eyelid_Top
										{
											OFFSET 0.001021 -0.002625 0.032516
											CHANNELS 3 Xrotation Yrotation Zrotation
											End Site
											{
												OFFSET 0.013214 0.005753 0.024078
											}
										}
										JOINT R_Eyelid_Bottom
										{
											OFFSET 0.001170 -0.002762 0.035366
											CHANNELS 3 Xrotation Yrotation Zrotation
											End Site
											{
												OFFSET 0.010029 0.008636 -0.024746
											}
										}
									}
								}
								JOINT Neck_Fat
								{
									OFFSET 0.000044 -9.595100 -17.491512
									CHANNELS 3 Xrotation Yrotation Zrotation
									End Site
									{
										OFFSET -0.000036 15.369423 -0.000007
									}
								}
							}
						}
						JOINT L_Clavicle
						{
							OFFSET 4.567107 -11.666092 -3.750029
							CHANNELS 3 Xrotation Yrotation Zrotation
							JOINT L_UpperArm
							{
								OFFSET 20.725666 -0.000053 -0.000032
								CHANNELS 3 Xrotation Yrotation Zrotation
								JOINT L_Forearm
								{
									OFFSET 5.265112 -0.585754 -20.155697
									CHANNELS 3 Xrotation Yrotation Zrotation
									JOINT L_Hand
									{
										OFFSET 2.653017 -10.877708 -16.383667
										CHANNELS 3 Xrotation Yrotation Zrotation
										JOINT L_Finger0
										{
											OFFSET -4.206146 -4.328911 -5.034346
											CHANNELS 3 Xrotation Yrotation Zrotation
											JOINT L_Finger01
											{
												OFFSET 0.084272 -1.788536 -4.181065
												CHANNELS 3 Xrotation Yrotation Zrotation
												End Site
												{
													OFFSET 3.261885 3.094673 -0.685818
												}
											}
										}
										JOINT L_Finger1
										{
											OFFSET -1.039112 -6.775742 -3.499998
											CHANNELS 3 Xrotation Yrotation Zrotation
											JOINT L_Finger11
											{
												OFFSET 1.320335 -3.040672 -6.425793
												CHANNELS 3 Xrotation Yrotation Zrotation
												End Site
												{
													OFFSET -1.244579 6.832077 -2.013330
												}
											}
										}
										JOINT L_Finger2
										{
											OFFSET 2.531296 -5.656487 -3.286415
											CHANNELS 3 Xrotation Yrotation Zrotation
											JOINT L_Finger21
											{
												OFFSET 1.991665 -2.402016 -5.957748
												CHANNELS 3 Xrotation Yrotation Zrotation
												End Site
												{
													OFFSET -2.793068 5.800873 -1.944178
												}
											}
										}
										JOINT L_Finger3
										{
											OFFSET 5.474075 -3.302338 -2.655975
											CHANNELS 3 Xrotation Yrotation Zrotation
											JOINT L_Finger31
											{
												OFFSET 2.026943 -1.267532 -5.961166
												CHANNELS 3 Xrotation Yrotation Zrotation
												End Site
												{
													OFFSET -4.375172 4.343658 -1.800320
												}
											}
										}
										JOINT L_Finger4
										{
											OFFSET 4.825745 1.085899 -2.321970
											CHANNELS 3 Xrotation Yrotation Zrotation
											JOINT L_Finger41
											{
												OFFSET 3.358261 -1.829651 -3.744434
												CHANNELS 3 Xrotation Yrotation Zrotation
												End Site
												{
													OFFSET -3.843296 2.955200 -2.267633
												}
											}
										}
									}
								}
							}
						}
						JOINT R_Clavicle
						{
							OFFSET -4.567111 -11.666092 -3.750036
							CHANNELS 3 Xrotation Yrotation Zrotation
							JOINT R_UpperArm
							{
								OFFSET -20.725670 -0.000031 0.000038
								CHANNELS 3 Xrotation Yrotation Zrotation
								JOINT R_Forearm
								{
									OFFSET -5.265285 -0.585762 -20.155655
									CHANNELS 3 Xrotation Yrotation Zrotation
									JOINT R_Hand
									{
										OFFSET -2.653147 -10.877739 -16.383663
										CHANNELS 3 Xrotation Yrotation Zrotation
										JOINT R_Finger0
										{
											OFFSET 4.206116 -4.328888 -5.034388
											CHANNELS 3 Xrotation Yrotation Zrotation
											JOINT R_Finger01
											{
												OFFSET -0.084324 -1.788544 -4.181051
												CHANNELS 3 Xrotation Yrotation Zrotation
												End Site
												{
													OFFSET -3.261890 3.094666 -0.685791
												}
											}
										}
										JOINT R_Finger1
										{
											OFFSET 1.039101 -6.775711 -3.499994
											CHANNELS 3 Xrotation Yrotation Zrotation
											JOINT R_Finger11
											{
												OFFSET -1.320374 -3.040672 -6.425779
												CHANNELS 3 Xrotation Yrotation Zrotation
												End Site
												{
													OFFSET 1.244556 6.832077 -2.013342
												}
											}
										}
										JOINT R_Finger2
										{
											OFFSET -2.531307 -5.656464 -3.286409
											CHANNELS 3 Xrotation Yrotation Zrotation
											JOINT R_Finger21
											{
												OFFSET -1.991707 -2.402016 -5.957708
												CHANNELS 3 Xrotation Yrotation Zrotation
												End Site
												{
													OFFSET 2.793037 5.800858 -1.944197
												}
											}
										}
										JOINT R_Finger3
										{
											OFFSET -5.474091 -3.302330 -2.655947
											CHANNELS 3 Xrotation Yrotation Zrotation
											JOINT R_Finger31
											{
												OFFSET -2.026993 -1.267532 -5.961157
												CHANNELS 3 Xrotation Yrotation Zrotation
												End Site
												{
													OFFSET 4.375156 4.343674 -1.800358
												}
											}
										}
										JOINT R_Finger4
										{
											OFFSET -4.825756 1.085922 -2.321926
											CHANNELS 3 Xrotation Yrotation Zrotation
											JOINT R_Finger41
											{
												OFFSET -3.358307 -1.829651 -3.744390
												CHANNELS 3 Xrotation Yrotation Zrotation
												End Site
												{
													OFFSET 3.843273 2.955208 -2.267666
												}
											}
										}
									}
								}
							}
						}
					}
				}
			}
		}
		JOINT Tail01
		{
			OFFSET -0.000010 10.922326 -0.017508
			CHANNELS 3 Xrotation Yrotation Zrotation
			JOINT Tail02
			{
				OFFSET -0.000022 21.986111 0.000013
				CHANNELS 3 Xrotation Yrotation Zrotation
				JOINT Tail03
				{
					OFFSET -0.000022 21.986118 0.000002
					CHANNELS 3 Xrotation Yrotation Zrotation
					JOINT Tail04
					{
						OFFSET -0.000022 21.986122 0.000004
						CHANNELS 3 Xrotation Yrotation Zrotation
						JOINT Tail05
						{
							OFFSET -0.000022 21.986099 0.000010
							CHANNELS 3 Xrotation Yrotation Zrotation
							JOINT Tail06
							{
								OFFSET -0.000022 21.986099 0.000006
								CHANNELS 3 Xrotation Yrotation Zrotation
								JOINT Tail07
								{
									OFFSET -0.000022 21.986099 0.000000
									CHANNELS 3 Xrotation Yrotation Zrotation
									JOINT Tail08
									{
										OFFSET -0.000022 21.984848 0.000050
										CHANNELS 3 Xrotation Yrotation Zrotation
										JOINT Tail09
										{
											OFFSET -0.000025 21.926025 -1.606211
											CHANNELS 3 Xrotation Yrotation Zrotation
											JOINT Tail10
											{
												OFFSET -0.000027 21.750092 -3.203882
												CHANNELS 3 Xrotation Yrotation Zrotation
												End Site
												{
													OFFSET -0.000036 4.767395 21.461668
												}
											}
										}
									}
								}
							}
						}
					}
				}
			}
		}
		JOINT L_Thigh
		{
			OFFSET 24.788780 0.000021 -0.000034
			CHANNELS 3 Xrotation Yrotation Zrotation
			JOINT L_Calf
			{
				OFFSET 4.720837 4.161326 -21.049969
				CHANNELS 3 Xrotation Yrotation Zrotation
				JOINT L_Foot
				{
					OFFSET 2.154160 21.114433 -11.949743
					CHANNELS 3 Xrotation Yrotation Zrotation
					JOINT L_Toe0
					{
						OFFSET 4.557564 9.251841 -8.735286
						CHANNELS 3 Xrotation Yrotation Zrotation
						End Site
						{
							OFFSET 4.555542 -12.646044 1.018752
						}
					}
					JOINT L_Toe1
					{
						OFFSET 2.346291 5.845602 -11.687160
						CHANNELS 3 Xrotation Yrotation Zrotation
						End Site
						{
							OFFSET 5.347954 -12.298279 1.365644
						}
					}
					JOINT L_Toe2
					{
						OFFSET -0.356020 3.902458 -12.541145
						CHANNELS 3 Xrotation Yrotation Zrotation
						End Site
						{
							OFFSET 3.916235 -12.806129 1.542549
						}
					}
					JOINT L_Toe3
					{
						OFFSET -4.603447 3.183935 -12.435249
						CHANNELS 3 Xrotation Yrotation Zrotation
						End Site
						{
							OFFSET 3.810858 -12.587427 2.957583
						}
					}
					JOINT L_Toe4
					{
						OFFSET -7.144358 6.231495 -10.072764
						CHANNELS 3 Xrotation Yrotation Zrotation
						End Site
						{
							OFFSET 3.810858 -12.587425 2.957585
						}
					}
				}
			}
		}
		JOINT R_Thigh
		{
			OFFSET -24.788780 -0.000024 0.000034
			CHANNELS 3 Xrotation Yrotation Zrotation
			JOINT R_Calf
			{
				OFFSET -4.720922 4.161324 -21.049952
				CHANNELS 3 Xrotation Yrotation Zrotation
				JOINT R_Foot
				{
					OFFSET -2.154238 21.114414 -11.949730
					CHANNELS 3 Xrotation Yrotation Zrotation
					JOINT R_Toe0
					{
						OFFSET -4.557598 9.251823 -8.735270
						CHANNELS 3 Xrotation Yrotation Zrotation
						End Site
						{
							OFFSET -4.555508 -12.646051 1.018756
						}
					}
					JOINT R_Toe1
					{
						OFFSET -2.346325 5.845589 -11.687157
						CHANNELS 3 Xrotation Yrotation Zrotation
						End Site
						{
							OFFSET -5.347919 -12.298286 1.365654
						}
					}
					JOINT R_Toe2
					{
						OFFSET 0.355980 3.902462 -12.541145
						CHANNELS 3 Xrotation Yrotation Zrotation
						End Site
						{
							OFFSET -3.916199 -12.806131 1.542559
						}
					}
					JOINT R_Toe3
					{
						OFFSET 4.603411 3.183941 -12.435266
						CHANNELS 3 Xrotation Yrotation Zrotation
						End Site
						{
							OFFSET -3.810825 -12.587429 2.957591
						}
					}
					JOINT R_Toe4
					{
						OFFSET 7.144323 6.231503 -10.072779
						CHANNELS 3 Xrotation Yrotation Zrotation
						End Site
						{
							OFFSET -3.810825 -12.587433 2.957584
						}
					}
				}
			}
		}
	}
}
MOTION
Frames: 4
Frame Time: 0.033333
0.000000 -0.000000 48.000000 0.000000 0.000000 -0.000082 -13.074558 3.625020 19.142638 12.323523 -7.050864 -3.371942 0.700231 -1.134051 -16.447835 -0.368925 -0.880371 -16.423994 -5.522164 0.057168 -16.424155 4.130230 -0.068128 -15.284514 -0.107521 0.050434 -15.294440 1.889716 1.338288 -19.642132 -9.112511 0.347342 -0.406901 0.000009 0.000000 -0.000000 -0.000000 -0.000000 0.000000 -0.000014 -0.000007 0.000001 0.000101 -0.000062 -0.000017 0.000001 -0.000003 -0.000005 0.000011 0.000009 0.000005 -0.000004 -0.000007 -0.000004 0.000097 0.000062 -0.000020 -0.000003 -0.000006 0.000001 -0.000004 -0.000015 -0.000014 -0.110956 -0.000000 -0.000002 0.000566 -11.903369 7.421835 33.046511 -27.731543 -39.857070 -34.648932 7.890424 -7.156674 -47.570109 13.258942 11.374021 22.541258 29.340054 15.054181 44.009713 -26.352516 27.415440 45.452433 10.853768 -7.997785 34.082842 7.876765 1.267575 43.529687 16.449098 -7.951644 14.893427 7.954981 0.815142 24.597769 12.409864 -7.697632 19.316926 19.948022 -1.198396 18.374561 14.305176 -2.531398 26.591846 36.676729 -3.365413 -0.000205 -4.000432 -6.051560 19.836384 7.490851 7.523167 -12.336099 -2.276875 3.060710 -55.861761 20.394115 -4.346611 -1.232734 -41.958781 -36.971531 0.177207 0.191943 -0.025061 27.987513 -12.045276 7.978507 -20.876401 3.912174 2.970398 27.400231 -5.201005 6.497484 -32.159768 14.320567 8.085003 18.096424 10.525824 11.290607 -18.679753 18.049472 5.076708 15.002005 27.465449 4.987829 0.471531 -0.683111 -0.086945 -1.634391 -0.031353 -0.139612 -2.034788 -1.863458 1.366951 -2.070730 -2.060206 3.141245 0.003979 -2.792954 5.654966 4.796059 -2.824947 4.103332 6.876884 -1.737425 6.223864 7.610373 -0.369317 12.876382 4.797272 2.460336 22.789010 0.560185 4.150210 21.376913 1.071785 11.199156 21.834120 -41.809698 11.847671 -19.566079 32.449443 2.932538 6.841802 -52.612001 12.480040 -23.720958 -1.610603 -6.830030 0.319976 8.153508 0.111875 1.097642 16.916857 7.465747 3.199809 20.837871 4.387942 -8.103036 -2.826089 11.561273 -8.935563 -22.038223 7.654596 -24.389800 48.871991 -5.763981 -9.432706 -68.745021 -7.204813 19.667731 45.858133 -26.415314 -5.832969 56.430589 -32.128827 -2.701979 67.673678 -38.171315 -1.613054 74.130830 -37.984782 15.474104 46.840706 -38.432727 2.984207 
0.000000 -0.000000 48.553719 0.000000 0.000000 -0.000082 -13.126546 3.296132 20.458083 12.936654 -6.724633 -3.261823 0.668247 -1.424458 -17.292955 -0.246645 -1.170500 -17.256382 -5.387883 -0.243905 -17.260892 3.301428 -0.058332 -14.799068 -0.567514 0.061876 -14.807825 2.129072 0.817773 -19.439958 -9.284918 0.341052 -0.391089 0.000011 -0.000000 -0.000000 0.000000 -0.000000 -0.000000 -0.000015 -0.000007 -0.000002 0.000102 -0.000061 -0.000017 0.000001 -0.000001 -0.000001 0.000010 0.000012 0.000003 -0.000005 -0.000007 -0.000004 0.000097 0.000062 -0.000019 -0.000003 -0.000004 0.000002 -0.000004 -0.000013 -0.000012 -0.098655 0.000000 -0.000000 0.000691 -10.512771 3.494196 33.455896 -23.314161 -36.616514 -33.949445 7.691723 -7.062191 -47.405345 13.656902 6.180067 20.699139 30.048307 17.131667 39.634089 -25.106090 24.191830 43.961478 10.776335 -7.539325 29.554703 6.812324 1.328230 42.115466 15.509510 -7.699405 11.135998 5.944558 0.808925 24.033544 10.771577 -8.420719 15.996945 16.719203 -0.512528 17.940945 11.283501 -3.315610 23.886360 33.696649 -2.253983 0.000032 -3.508795 -3.891055 18.007756 5.602525 8.062466 -12.693514 -2.352718 3.142140 -54.498165 20.348575 -2.916652 -1.232732 -41.958781 -36.971551 0.177234 0.191910 -0.025057 27.987518 -12.045276 7.978508 -20.876371 3.912222 2.970601 27.400236 -5.201008 6.497483 -32.159768 14.320575 8.085022 18.096424 10.525830 11.290611 -18.679755 18.049475 5.076709 15.002010 27.465447 4.987826 0.471530 -0.683108 -0.086944 -1.634775 -0.032024 -0.140870 -2.017117 -1.862051 1.358831 -1.928638 -2.038330 2.878948 -0.358083 -2.692009 5.224075 3.919779 -2.808665 2.999529 6.482099 -1.700139 4.335745 7.874603 -0.574660 10.770594 6.200741 2.446290 21.504116 1.654122 4.519056 21.748033 0.755127 12.118819 23.630757 -40.463495 12.814694 -16.658326 31.196110 2.749163 6.613277 -51.862962 12.128025 -26.954230 -1.610603 -6.830028 0.319977 8.153508 0.111879 1.097645 16.916861 7.465748 3.199809 20.837872 4.387933 -8.103034 -2.826090 11.561272 -8.935559 -21.887633 7.458602 -28.305697 45.873671 -5.192738 -9.020777 -64.330144 -2.311198 13.849895 43.275167 -25.467330 -5.524599 53.009300 -30.687060 -2.968054 63.614510 -36.863279 -2.612073 69.729449 -36.938708 13.882940 44.483414 -37.462543 2.841460 
0.000000 -0.000000 49.089157 0.000000 0.000000 -0.000082 -13.168977 2.784499 21.818389 13.477597 -6.260910 -3.334315 0.629420 -1.708555 -18.062748 0.150749 -1.479401 -18.012437 -4.981090 -0.563072 -18.022236 2.201663 -0.061419 -14.413636 -1.284565 0.067522 -14.420524 2.504057 0.030088 -19.159630 -9.546417 0.336481 -0.381728 0.000007 0.000000 -0.000000 -0.000000 -0.000000 -0.000000 -0.000015 -0.000007 -0.000002 0.000101 -0.000061 -0.000018 -0.000000 -0.000002 -0.000000 0.000009 0.000010 0.000000 -0.000004 -0.000007 -0.000004 0.000097 0.000063 -0.000026 -0.000003 -0.000003 0.000002 -0.000001 -0.000014 -0.000011 -0.085125 0.000000 -0.000003 0.000606 -9.154337 -0.577567 32.861666 -18.955375 -33.515527 -33.225664 7.487339 -6.961908 -47.279188 14.069049 0.810985 18.757617 30.715671 19.315071 35.264875 -23.599205 21.027921 42.427977 10.683137 -7.069160 24.904243 5.714315 1.302498 40.668876 14.538777 -7.461729 7.279519 3.880000 0.664593 23.431744 9.097879 -9.181242 12.673276 13.362141 -0.019107 17.453739 8.180091 -4.144042 21.262790 30.588886 -1.318123 0.000061 -3.017150 -1.730598 15.547510 3.460476 8.539403 -12.628681 -2.338921 3.127403 -53.317601 20.267195 -1.474025 -1.232738 -41.958767 -36.971541 0.177316 0.191831 -0.025042 27.987518 -12.045280 7.978513 -20.876289 3.912367 2.971136 27.400226 -5.201009 6.497494 -32.159741 14.320603 8.085104 18.096419 10.525827 11.290620 -18.679753 18.049473 5.076715 15.002014 27.465444 4.987827 0.471525 -0.683111 -0.086940 -1.635649 -0.032868 -0.138972 -1.991978 -1.861635 1.436467 -1.712584 -2.022370 2.452829 -0.530472 -2.598046 4.852918 3.097049 -2.753484 2.204739 5.967386 -1.633442 2.766632 7.620097 -0.936137 8.697807 7.417149 2.172022 19.800570 3.091574 4.723523 21.460034 1.127488 12.975219 24.873623 -38.875579 13.855041 -13.672869 29.276995 2.478317 6.255983 -50.709093 11.867065 -30.122227 -1.610603 -6.830027 0.319973 8.153508 0.111876 1.097646 16.916861 7.465749 3.199809 20.837872 4.387936 -8.103032 -2.826086 11.561273 -8.935563 -21.746994 7.447402 -32.194141 42.873828 -4.643726 -8.579773 -59.666203 2.429576 7.834674 38.149844 -23.613461 -4.776418 46.331854 -27.775989 -3.195566 55.781731 -34.098244 -4.214137 61.223186 -34.576600 11.081055 39.865236 -35.512503 2.708835 
0.000000 -0.000000 49.560585 0.000000 0.000000 -0.000082 -13.203472 2.240310 23.346319 14.071277 -5.835165 -3.536543 0.582096 -1.985658 -18.852155 0.581313 -1.800780 -18.783560 -4.540982 -0.894696 -18.798612 0.978583 -0.074492 -14.026550 -2.057794 0.066520 -14.031132 2.974123 -0.880376 -18.859891 -9.844144 0.332612 -0.373865 0.000009 -0.000000 -0.000000 -0.000000 -0.000000 -0.000000 -0.000015 -0.000007 -0.000006 0.000102 -0.000061 -0.000020 0.000002 0.000000 -0.000004 0.000010 0.000013 -0.000005 -0.000004 -0.000007 -0.000002 0.000098 0.000063 -0.000023 -0.000001 -0.000002 -0.000000 -0.000003 -0.000012 -0.000014 -0.070884 -0.000000 -0.000004 0.000270 -7.817310 -4.745403 31.690736 -14.749575 -30.371860 -32.484328 7.279330 -6.856552 -47.149537 14.480450 -4.683595 16.733243 31.330177 21.581950 30.956968 -21.843285 17.974363 40.864397 10.574185 -6.591663 20.165722 4.598811 1.184558 39.203449 13.541617 -7.250258 3.345215 1.787461 0.374616 22.796455 7.401977 -9.973354 9.352575 9.913397 0.273918 16.913729 5.025559 -5.011572 18.724412 27.383950 -0.556528 0.000152 -2.525494 0.429852 13.161149 1.414131 8.868516 -13.204733 -2.462117 3.257828 -51.661184 20.303038 -0.111153 -1.232734 -41.958791 -36.971568 0.177438 0.191719 -0.025017 27.987525 -12.045278 7.978510 -20.876174 3.912588 2.971925 27.400240 -5.201014 6.497493 -32.159717 14.320637 8.085224 18.096434 10.525830 11.290625 -18.679755 18.049472 5.076704 15.002019 27.465447 4.987828 0.471528 -0.683111 -0.086938 -1.636533 -0.033657 -0.134037 -1.958368 -1.862372 1.544868 -1.545067 -2.015456 1.712178 -0.453603 -2.514330 4.382971 2.582137 -2.674920 1.778179 5.441085 -1.541639 1.740643 6.608071 -1.399495 6.848700 7.999041 1.627079 17.667746 4.697556 4.686084 20.284890 2.389676 13.797869 25.317401 -37.262329 14.989880 -10.908154 27.217662 2.201343 5.863075 -49.451362 11.687329 -33.188142 -1.610605 -6.830030 0.319971 8.153506 0.111886 1.097644 16.916859 7.465746 3.199809 20.837876 4.387934 -8.103034 -2.826085 11.561268 -8.935555 -21.635519 7.537976 -36.224011 39.872008 -4.118477 -8.110891 -57.160443 6.727865 5.074595 35.603888 -22.711134 -4.339535 43.063144 -26.316717 -3.164941 51.995508 -32.656237 -4.824016 57.116453 -33.277453 9.874954 37.599693 -34.535069 2.715221 
